# xmcd
#
# Track frame offsets: 
#        150
#        14667
#        26438
#        38225
#        49445
#        61510
#        74821
#        86915
#        100457
#        114445
#        126684
#        140116
#        150884
#        161843
#        173022
#        186306
#        198921
#        212787
#        225653
#        236482
#        249699
#        262063
#        274965
#        287229
#        300790
#        314022
#        323879
#        335725
#
# Disc length: 4636 seconds
#
# Revision: 1
# Processed by: cddbd v1.5.2PL0 Copyright (c) Steve Scherf et al.
# Submitted via: ExactAudioCopyFreeDBPlugin 1.0
#
DISCID=b3121a1c
DTITLE=Various Artist - Wailin' Daddy: The Best Of Maxwell Davis 1945
DTITLE=1959 [CD2]
DYEAR=2011
DGENRE=R&B
TTITLE0=Helen Humes All Stars - Riffin' Without Helen
TTITLE1=Jo Evans with Maxwell Davis and His Orchestra - Goody Goody Baby
TTITLE2=Jo Jo Adams with Maxwell Davis and His Band - Hard Headed Woman 
TTITLE2=Blues
TTITLE3=Jake Porter and His Orchestra - Opus Five - Jake's Five
TTITLE4=Jake Porter and His Orchestra - Jump Safari
TTITLE5=Helen Humes and Her All Stars - It's Better To Give Than Receive
TTITLE6=Mary De Pina with Monte Easter and His Orchestra - Boogie Woogie
TTITLE6=Man
TTITLE7=Effie Smith with Buddy Harper and His All Stars - Effie's Boogie
TTITLE8=Charles Mingus Sextet - Swingin' An Echo
TTITLE9=Geechie Smith and His Orchestra - T-Town Jump
TTITLE10=Gene Phillips and His Rhythm Aces - Big Legs
TTITLE11=Crown Prince Waterford - Love Awhile
TTITLE12=Lloyd Glenn and His All Stars - Jumpin' With Lloyd
TTITLE13=Clarence Gatemouth Brown with Maxwell Davis Orchestra - Witho
TTITLE13=ut Me Baby
TTITLE14=Joe Turner with Pete Johnson - Don't Talk Me To Death
TTITLE15=Betty Hall Jones and Her Rhythm - The Same Old Boogie
TTITLE16=Pete Johnson Sextette - Half Tight Boogie
TTITLE17=Little Miss Cornshucks with Maxwell Davis and His Blenders - Co
TTITLE17=rnshucks' Blues
TTITLE18=Jimmy Witherspoon - Call Me Baby
TTITLE19=Joe Swift - Alligator Meat
TTITLE20=Big Speed McDaniels - The Jumping Boogie Blues
TTITLE21=Mabel Scott with Maxvell Davis Orchestra - Gee
TTITLE22=Lowell Fulson - Jimmy's Blues
TTITLE23=Felix Gross - Peaceful Lovin'
TTITLE24=Lee Young and His Band - Seeing Double
TTITLE25=Micky Cooper - When I Had Money
TTITLE26=Percy Mayfield with Monroe Tucker and His Orchestra - Half Awok
TTITLE26=e
TTITLE27=Amos Milburn - Pot Luck Boogie
EXTD=
EXTT0=
EXTT1=
EXTT2=
EXTT3=
EXTT4=
EXTT5=
EXTT6=
EXTT7=
EXTT8=
EXTT9=
EXTT10=
EXTT11=
EXTT12=
EXTT13=
EXTT14=
EXTT15=
EXTT16=
EXTT17=
EXTT18=
EXTT19=
EXTT20=
EXTT21=
EXTT22=
EXTT23=
EXTT24=
EXTT25=
EXTT26=
EXTT27=
PLAYORDER=
